solid "box<stl unit=M>"
   facet normal 1 0 0
      outer loop
         vertex 0.0127667489657962 0.02127 0.000189206991516422
         vertex 0.0127667489657962 0.02127 0.0429796705640049
         vertex 0.0127667489657962 0 0.000189206991516422
      endloop
   endfacet
   facet normal 1 0 0
      outer loop
         vertex 0.0127667489657962 0 0.000189206991516422
         vertex 0.0127667489657962 0.02127 0.0429796705640049
         vertex 0.0127667489657962 0 0.0429796705640049
      endloop
   endfacet
   facet normal 0 0 1
      outer loop
         vertex 0.0127667489657962 0.02127 0.0429796705640049
         vertex -0.0144309385042558 0.02127 0.0429796705640049
         vertex 0.0127667489657962 0 0.0429796705640049
      endloop
   endfacet
   facet normal 0 0 1
      outer loop
         vertex 0.0127667489657962 0 0.0429796705640049
         vertex -0.0144309385042558 0.02127 0.0429796705640049
         vertex -0.0144309385042558 0 0.0429796705640049
      endloop
   endfacet
   facet normal -1 0 0
      outer loop
         vertex -0.0144309385042558 0.02127 0.0429796705640049
         vertex -0.0144309385042558 0.02127 0.000189206991516422
         vertex -0.0144309385042558 0 0.0429796705640049
      endloop
   endfacet
   facet normal -1 0 0
      outer loop
         vertex -0.0144309385042558 0 0.0429796705640049
         vertex -0.0144309385042558 0.02127 0.000189206991516422
         vertex -0.0144309385042558 0 0.000189206991516422
      endloop
   endfacet
   facet normal 0 0 -1
      outer loop
         vertex -0.0144309385042558 0.02127 0.000189206991516422
         vertex 0.0127667489657962 0.02127 0.000189206991516422
         vertex -0.0144309385042558 0 0.000189206991516422
      endloop
   endfacet
   facet normal 0 0 -1
      outer loop
         vertex -0.0144309385042558 0 0.000189206991516422
         vertex 0.0127667489657962 0.02127 0.000189206991516422
         vertex 0.0127667489657962 0 0.000189206991516422
      endloop
   endfacet
   facet normal 0 1 0
      outer loop
         vertex 0.0127667489657962 0.02127 0.0429796705640049
         vertex 0.0127667489657962 0.02127 0.000189206991516422
         vertex -0.0144309385042558 0.02127 0.0429796705640049
      endloop
   endfacet
   facet normal 0 1 0
      outer loop
         vertex -0.0144309385042558 0.02127 0.0429796705640049
         vertex 0.0127667489657962 0.02127 0.000189206991516422
         vertex -0.0144309385042558 0.02127 0.000189206991516422
      endloop
   endfacet
   facet normal 0 -1 0
      outer loop
         vertex 0.0127667489657962 0 0.000189206991516422
         vertex 0.0127667489657962 0 0.0429796705640049
         vertex -0.0144309385042558 0 0.000189206991516422
      endloop
   endfacet
   facet normal 0 -1 0
      outer loop
         vertex -0.0144309385042558 0 0.000189206991516422
         vertex 0.0127667489657962 0 0.0429796705640049
         vertex -0.0144309385042558 0 0.0429796705640049
      endloop
   endfacet
endsolid
