solid "box<stl unit=M>"
   facet normal -0.999390827019096 -0.0348994967025015 -2.46251300621648E-18
      outer loop
         vertex -0.0137091238063063 1.3926512073382E-05 0
         vertex -0.0136758668992681 -0.000938426701279284 0
         vertex -0.0136758668992681 -0.000938426701279288 0.04794
      endloop
   endfacet
   facet normal -0.99026806874157 -0.139173100960066 -1.00720419465964E-17
      outer loop
         vertex -0.0136758668992681 -0.000938426701279288 0.04794
         vertex -0.0136758668992681 -0.000938426701279284 0
         vertex -0.013410782999445 -0.00282459665597243 0
      endloop
   endfacet
   facet normal -0.99026806874157 -0.139173100960065 -2.66693281837857E-17
      outer loop
         vertex -0.0136758668992681 -0.000938426701279288 0.04794
         vertex -0.013410782999445 -0.00282459665597243 0
         vertex -0.013410782999445 -0.00282459665597243 0.04794
      endloop
   endfacet
   facet normal -0.961261695938319 -0.275637355816998 -1.73290090637385E-17
      outer loop
         vertex -0.013410782999445 -0.00282459665597243 0.04794
         vertex -0.013410782999445 -0.00282459665597243 0
         vertex -0.0128857747563803 -0.00465551798597181 0
      endloop
   endfacet
   facet normal -0.961261695938319 -0.275637355817 5.33386563675713E-17
      outer loop
         vertex -0.013410782999445 -0.00282459665597243 0.04794
         vertex -0.0128857747563803 -0.00465551798597181 0
         vertex -0.0128857747563803 -0.00465551798597181 0.04794
      endloop
   endfacet
   facet normal -0.9135454576426 -0.406736643075801 4.40370066450522E-17
      outer loop
         vertex -0.0128857747563803 -0.00465551798597181 0.04794
         vertex -0.0128857747563803 -0.00465551798597181 0
         vertex -0.0121110608583372 -0.00639555389023114 0
      endloop
   endfacet
   facet normal -0.913545457642601 -0.406736643075799 -3.71051522557019E-17
      outer loop
         vertex -0.0128857747563803 -0.00465551798597181 0.04794
         vertex -0.0121110608583372 -0.00639555389023114 0
         vertex -0.0121110608583372 -0.00639555389023113 0.04794
      endloop
   endfacet
   facet normal -0.848048096156426 -0.529919264233205 -2.30231770180347E-17
      outer loop
         vertex -0.0121110608583372 -0.00639555389023113 0.04794
         vertex -0.0121110608583372 -0.00639555389023114 0
         vertex -0.0111017202301173 -0.00801083654913549 0
      endloop
   endfacet
   facet normal -0.848048096156425 -0.529919264233206 2.08716481438322E-17
      outer loop
         vertex -0.0121110608583372 -0.00639555389023113 0.04794
         vertex -0.0111017202301173 -0.00801083654913549 0
         vertex -0.0111017202301173 -0.0080108365491355 0.04794
      endloop
   endfacet
   facet normal -0.766044443118978 -0.642787609686539 8.92017198705945E-18
      outer loop
         vertex -0.0111017202301173 -0.0080108365491355 0.04794
         vertex -0.0111017202301173 -0.00801083654913549 0
         vertex -0.00987739853894078 -0.00946992632308612 0
      endloop
   endfacet
   facet normal -0.766044443118978 -0.642787609686539 -6.95721604794411E-18
      outer loop
         vertex -0.0111017202301173 -0.0080108365491355 0.04794
         vertex -0.00987739853894078 -0.00946992632308612 0
         vertex -0.00987739853894078 -0.00946992632308612 0.04794
      endloop
   endfacet
   facet normal -0.669130606358857 -0.743144825477395 5.35645404509882E-18
      outer loop
         vertex -0.00987739853894078 -0.00946992632308612 0.04794
         vertex -0.00987739853894078 -0.00946992632308612 0
         vertex -0.00846192581388117 -0.0107444236893231 0
      endloop
   endfacet
   facet normal -0.669130606358858 -0.743144825477394 -4.87005123356085E-17
      outer loop
         vertex -0.00987739853894078 -0.00946992632308612 0.04794
         vertex -0.00846192581388117 -0.0107444236893231 0
         vertex -0.00846192581388117 -0.0107444236893231 0.04794
      endloop
   endfacet
   facet normal -0.559192903470748 -0.829037572555041 -4.04691304651789E-17
      outer loop
         vertex -0.00846192581388117 -0.0107444236893231 0.04794
         vertex -0.00846192581388117 -0.0107444236893231 0
         vertex -0.0068828526214554 -0.0118095220063318 0
      endloop
   endfacet
   facet normal -0.559192903470746 -0.829037572555042 4.17432962876645E-17
      outer loop
         vertex -0.00846192581388117 -0.0107444236893231 0.04794
         vertex -0.0068828526214554 -0.0118095220063318 0
         vertex -0.0068828526214554 -0.0118095220063318 0.04794
      endloop
   endfacet
   facet normal -0.438371146789077 -0.898794046299167 1.42666944777375E-17
      outer loop
         vertex -0.0068828526214554 -0.0118095220063318 0.04794
         vertex -0.0068828526214554 -0.0118095220063318 0
         vertex -0.00517091382518489 -0.0126444903469032 0
      endloop
   endfacet
   facet normal -0.438371146789078 -0.898794046299167 -3.47860802397205E-17
      outer loop
         vertex -0.0068828526214554 -0.0118095220063318 0.04794
         vertex -0.00517091382518489 -0.0126444903469032 0
         vertex -0.00517091382518489 -0.0126444903469032 0.04794
      endloop
   endfacet
   facet normal -0.309016994374947 -0.951056516295154 -4.64647906207721E-17
      outer loop
         vertex -0.00517091382518489 -0.0126444903469032 0.04794
         vertex -0.00517091382518489 -0.0126444903469032 0
         vertex -0.00335943036643753 -0.0132330770020503 0
      endloop
   endfacet
   facet normal -0.309016994374946 -0.951056516295154 0
      outer loop
         vertex -0.00517091382518489 -0.0126444903469032 0.04794
         vertex -0.00335943036643753 -0.0132330770020503 0
         vertex -0.00335943036643753 -0.0132330770020503 0.04794
      endloop
   endfacet
   facet normal -0.173648177666931 -0.984807753012208 0
      outer loop
         vertex -0.00335943036643753 -0.0132330770020503 0.04794
         vertex -0.00335943036643753 -0.0132330770020503 0
         vertex -0.00148366071020594 -0.0135638258020382 0
      endloop
   endfacet
   facet normal -0.173648177666932 -0.984807753012208 -1.04358240719161E-17
      outer loop
         vertex -0.00335943036643753 -0.0132330770020503 0.04794
         vertex -0.00148366071020594 -0.0135638258020382 0
         vertex -0.00148366071020594 -0.0135638258020382 0.04794
      endloop
   endfacet
   facet normal -0.0348994967025002 -0.999390827019096 -2.05212946126624E-18
      outer loop
         vertex -0.00148366071020594 -0.0135638258020382 0.04794
         vertex -0.00148366071020594 -0.0135638258020382 0
         vertex 0.000419885420807693 -0.0136302990976962 0
      endloop
   endfacet
   facet normal -0.0348994967025002 -0.999390827019096 -2.02918801398369E-18
      outer loop
         vertex -0.00148366071020594 -0.0135638258020382 0.04794
         vertex 0.000419885420807693 -0.0136302990976962 0
         vertex 0.00041988542080769 -0.0136302990976962 0.04794
      endloop
   endfacet
   facet normal 0.104528463267652 -0.994521895368274 6.14639061534284E-18
      outer loop
         vertex 0.00041988542080769 -0.0136302990976962 0.04794
         vertex 0.000419885420807693 -0.0136302990976962 0
         vertex 0.0023141576664148 -0.0134312030619367 0
      endloop
   endfacet
   facet normal 0.104528463267654 -0.994521895368273 5.91363364075248E-17
      outer loop
         vertex 0.00041988542080769 -0.0136302990976962 0.04794
         vertex 0.0023141576664148 -0.0134312030619367 0
         vertex 0.00231415766641481 -0.0134312030619367 0.04794
      endloop
   endfacet
   facet normal 0.241921895599667 -0.970295726275997 3.95818310231214E-17
      outer loop
         vertex 0.00231415766641481 -0.0134312030619367 0.04794
         vertex 0.0023141576664148 -0.0134312030619367 0
         vertex 0.00416228617205741 -0.0129704128726272 0
      endloop
   endfacet
   facet normal 0.241921895599668 -0.970295726275996 5.68172643915434E-17
      outer loop
         vertex 0.00231415766641481 -0.0134312030619367 0.04794
         vertex 0.00416228617205741 -0.0129704128726272 0
         vertex 0.00416228617205741 -0.0129704128726272 0.04794
      endloop
   endfacet
   facet normal 0.374606593415912 -0.927183854566787 4.67679791478081E-17
      outer loop
         vertex 0.00416228617205741 -0.0129704128726272 0.04794
         vertex 0.00416228617205741 -0.0129704128726272 0
         vertex 0.00592829921858819 -0.0122568972866618 0
      endloop
   endfacet
   facet normal 0.374606593415911 -0.927183854566788 0
      outer loop
         vertex 0.00416228617205741 -0.0129704128726272 0.04794
         vertex 0.00592829921858819 -0.0122568972866618 0
         vertex 0.00592829921858819 -0.0122568972866618 0.04794
      endloop
   endfacet
   facet normal 0.5 -0.866025403784439 0
      outer loop
         vertex 0.00592829921858819 -0.0122568972866618 0.04794
         vertex 0.00592829921858819 -0.0122568972866618 0
         vertex 0.00757782337086649 -0.0113045440733091 0
      endloop
   endfacet
   facet normal 0.500000000000001 -0.866025403784438 2.78288641917763E-17
      outer loop
         vertex 0.00592829921858819 -0.0122568972866618 0.04794
         vertex 0.00757782337086649 -0.0113045440733091 0
         vertex 0.00757782337086649 -0.0113045440733091 0.04794
      endloop
   endfacet
   facet normal 0.615661475325659 -0.788010753606721 3.34168465113247E-17
      outer loop
         vertex 0.00757782337086649 -0.0113045440733091 0.04794
         vertex 0.00757782337086649 -0.0113045440733091 0
         vertex 0.00907875251757412 -0.0101318897045814 0
      endloop
   endfacet
   facet normal 0.615661475325658 -0.788010753606722 -3.24670082237391E-17
      outer loop
         vertex 0.00757782337086649 -0.0113045440733091 0.04794
         vertex 0.00907875251757412 -0.0101318897045814 0
         vertex 0.00907875251757412 -0.0101318897045814 0.04794
      endloop
   endfacet
   facet normal 0.719339800338651 -0.694658370458997 -5.38452688646157E-17
      outer loop
         vertex 0.00907875251757412 -0.0101318897045814 0.04794
         vertex 0.00907875251757412 -0.0101318897045814 0
         vertex 0.010401872780152 -0.00876175856389147 0
      endloop
   endfacet
   facet normal 0.719339800338653 -0.694658370458996 2.5509792175795E-17
      outer loop
         vertex 0.00907875251757412 -0.0101318897045814 0.04794
         vertex 0.010401872780152 -0.00876175856389147 0
         vertex 0.010401872780152 -0.00876175856389147 0.04794
      endloop
   endfacet
   facet normal 0.809016994374947 -0.587785252292474 1.32638502161659E-17
      outer loop
         vertex 0.010401872780152 -0.00876175856389147 0.04794
         vertex 0.010401872780152 -0.00876175856389147 0
         vertex 0.0115214311277161 -0.00722081869539168 0
      endloop
   endfacet
   facet normal 0.809016994374947 -0.587785252292474 0
      outer loop
         vertex 0.010401872780152 -0.00876175856389147 0.04794
         vertex 0.0115214311277161 -0.00722081869539168 0
         vertex 0.0115214311277161 -0.00722081869539168 0.04794
      endloop
   endfacet
   facet normal 0.882947592858926 -0.469471562785892 0
      outer loop
         vertex 0.0115214311277161 -0.00722081869539168 0.04794
         vertex 0.0115214311277161 -0.00722081869539168 0
         vertex 0.0124156366305098 -0.00553906274082928 0
      endloop
   endfacet
   facet normal 0.882947592858927 -0.46947156278589 6.26149444314968E-17
      outer loop
         vertex 0.0115214311277161 -0.00722081869539168 0.04794
         vertex 0.0124156366305098 -0.00553906274082928 0
         vertex 0.0124156366305098 -0.00553906274082928 0.04794
      endloop
   endfacet
   facet normal 0.939692620785909 -0.342020143325668 6.80061263862948E-17
      outer loop
         vertex 0.0124156366305098 -0.00553906274082928 0.04794
         vertex 0.0124156366305098 -0.00553906274082928 0
         vertex 0.0130670845955649 -0.00374922416689078 0
      endloop
   endfacet
   facet normal 0.939692620785908 -0.34202014332567 -2.08716481438323E-17
      outer loop
         vertex 0.0124156366305098 -0.00553906274082928 0.04794
         vertex 0.0130670845955649 -0.00374922416689078 0
         vertex 0.0130670845955649 -0.00374922416689078 0.04794
      endloop
   endfacet
   facet normal 0.978147600733806 -0.207911690817759 -1.31658585572653E-17
      outer loop
         vertex 0.0130670845955649 -0.00374922416689078 0.04794
         vertex 0.0130670845955649 -0.00374922416689078 0
         vertex 0.0134630953292526 -0.00188614014550671 0
      endloop
   endfacet
   facet normal 0.978147600733806 -0.20791169081776 -4.52219043116366E-17
      outer loop
         vertex 0.0130670845955649 -0.00374922416689078 0.04794
         vertex 0.0134630953292526 -0.00188614014550671 0
         vertex 0.0134630953292526 -0.00188614014550671 0.04794
      endloop
   endfacet
   facet normal 0.997564050259824 -0.0697564737441262 -6.33597596878163E-17
      outer loop
         vertex 0.0134630953292526 -0.00188614014550671 0.04794
         vertex 0.0134630953292526 -0.00188614014550671 0
         vertex 0.0135959609330974 1.39265120733803E-05 0
      endloop
   endfacet
   facet normal 0.997564050259824 -0.0697564737441246 0
      outer loop
         vertex 0.0134630953292526 -0.00188614014550671 0.04794
         vertex 0.0135959609330974 1.39265120733803E-05 0
         vertex 0.0135959609330974 1.39265120733803E-05 0.04794
      endloop
   endfacet
   facet normal 0.997564050259824 0.0697564737441246 0
      outer loop
         vertex 0.0135959609330974 1.39265120733803E-05 0.04794
         vertex 0.0135959609330974 1.39265120733803E-05 0
         vertex 0.0134630953292526 0.00191399316965347 0
      endloop
   endfacet
   facet normal 0.997564050259824 0.0697564737441262 6.31947124354919E-17
      outer loop
         vertex 0.0135959609330974 1.39265120733803E-05 0.04794
         vertex 0.0134630953292526 0.00191399316965347 0
         vertex 0.0134630953292526 0.00191399316965347 0.04794
      endloop
   endfacet
   facet normal 0.978147600733806 0.20791169081776 4.44574195547777E-17
      outer loop
         vertex 0.0134630953292526 0.00191399316965347 0.04794
         vertex 0.0134630953292526 0.00191399316965347 0
         vertex 0.0130670845955649 0.00377707719103754 0
      endloop
   endfacet
   facet normal 0.978147600733806 0.207911690817759 1.39144320958883E-17
      outer loop
         vertex 0.0134630953292526 0.00191399316965347 0.04794
         vertex 0.0130670845955649 0.00377707719103754 0
         vertex 0.0130670845955649 0.00377707719103754 0.04794
      endloop
   endfacet
   facet normal 0.939692620785908 0.34202014332567 2.16581800333122E-17
      outer loop
         vertex 0.0130670845955649 0.00377707719103754 0.04794
         vertex 0.0130670845955649 0.00377707719103754 0
         vertex 0.0124156366305098 0.00556691576497604 0
      endloop
   endfacet
   facet normal 0.939692620785909 0.342020143325668 -6.72530884634594E-17
      outer loop
         vertex 0.0130670845955649 0.00377707719103754 0.04794
         vertex 0.0124156366305098 0.00556691576497604 0
         vertex 0.0124156366305098 0.00556691576497604 0.04794
      endloop
   endfacet
   facet normal 0.882947592858927 0.46947156278589 -6.38994542089943E-17
      outer loop
         vertex 0.0124156366305098 0.00556691576497604 0.04794
         vertex 0.0124156366305098 0.00556691576497604 0
         vertex 0.0115214311277161 0.00724867171953844 0
      endloop
   endfacet
   facet normal 0.882947592858926 0.469471562785892 0
      outer loop
         vertex 0.0124156366305098 0.00556691576497604 0.04794
         vertex 0.0115214311277161 0.00724867171953844 0
         vertex 0.0115214311277161 0.00724867171953844 0.04794
      endloop
   endfacet
   facet normal 0.809016994374947 0.587785252292474 0
      outer loop
         vertex 0.0115214311277161 0.00724867171953844 0.04794
         vertex 0.0115214311277161 0.00724867171953844 0
         vertex 0.010401872780152 0.00878961158803823 0
      endloop
   endfacet
   facet normal 0.809016994374947 0.587785252292473 -1.15953600799068E-17
      outer loop
         vertex 0.0115214311277161 0.00724867171953844 0.04794
         vertex 0.010401872780152 0.00878961158803823 0
         vertex 0.010401872780152 0.00878961158803823 0.04794
      endloop
   endfacet
   facet normal 0.719339800338653 0.694658370458996 -2.42433192988339E-17
      outer loop
         vertex 0.010401872780152 0.00878961158803823 0.04794
         vertex 0.010401872780152 0.00878961158803823 0
         vertex 0.00907875251757412 0.0101597427287282 0
      endloop
   endfacet
   facet normal 0.719339800338651 0.694658370458997 5.33386563675713E-17
      outer loop
         vertex 0.010401872780152 0.00878961158803823 0.04794
         vertex 0.00907875251757412 0.0101597427287282 0
         vertex 0.00907875251757412 0.0101597427287282 0.04794
      endloop
   endfacet
   facet normal 0.615661475325658 0.788010753606722 3.20827732749317E-17
      outer loop
         vertex 0.00907875251757412 0.0101597427287282 0.04794
         vertex 0.00907875251757412 0.0101597427287282 0
         vertex 0.00757782337086649 0.0113323970974559 0
      endloop
   endfacet
   facet normal 0.615661475325659 0.788010753606721 -3.24670082237393E-17
      outer loop
         vertex 0.00907875251757412 0.0101597427287282 0.04794
         vertex 0.00757782337086649 0.0113323970974559 0
         vertex 0.00757782337086649 0.0113323970974559 0.04794
      endloop
   endfacet
   facet normal 0.500000000000001 0.866025403784438 -2.7138978034681E-17
      outer loop
         vertex 0.00757782337086649 0.0113323970974559 0.04794
         vertex 0.00757782337086649 0.0113323970974559 0
         vertex 0.00592829921858819 0.0122847503108085 0
      endloop
   endfacet
   facet normal 0.5 0.866025403784439 0
      outer loop
         vertex 0.00757782337086649 0.0113323970974559 0.04794
         vertex 0.00592829921858819 0.0122847503108085 0
         vertex 0.00592829921858819 0.0122847503108085 0.04794
      endloop
   endfacet
   facet normal 0.374606593415911 0.927183854566788 0
      outer loop
         vertex 0.00592829921858819 0.0122847503108085 0.04794
         vertex 0.00592829921858819 0.0122847503108085 0
         vertex 0.00416228617205741 0.012998265896774 0
      endloop
   endfacet
   facet normal 0.374606593415912 0.927183854566787 -4.63814403196272E-17
      outer loop
         vertex 0.00592829921858819 0.0122847503108085 0.04794
         vertex 0.00416228617205741 0.012998265896774 0
         vertex 0.00416228617205741 0.012998265896774 0.04794
      endloop
   endfacet
   facet normal 0.241921895599668 0.970295726275996 -5.70898657185553E-17
      outer loop
         vertex 0.00416228617205741 0.012998265896774 0.04794
         vertex 0.00416228617205741 0.012998265896774 0
         vertex 0.00231415766641481 0.0134590560860834 0
      endloop
   endfacet
   facet normal 0.241921895599667 0.970295726275997 -3.94242242716831E-17
      outer loop
         vertex 0.00416228617205741 0.012998265896774 0.04794
         vertex 0.00231415766641481 0.0134590560860834 0
         vertex 0.0023141576664148 0.0134590560860834 0.04794
      endloop
   endfacet
   facet normal 0.104528463267654 0.994521895368273 -5.87357745421978E-17
      outer loop
         vertex 0.0023141576664148 0.0134590560860834 0.04794
         vertex 0.00231415766641481 0.0134590560860834 0
         vertex 0.00041988542080769 0.013658152121843 0
      endloop
   endfacet
   facet normal 0.104528463267652 0.994521895368274 -6.37744804394878E-18
      outer loop
         vertex 0.0023141576664148 0.0134590560860834 0.04794
         vertex 0.00041988542080769 0.013658152121843 0
         vertex 0.000419885420807693 0.013658152121843 0.04794
      endloop
   endfacet
   facet normal -0.0348994967025002 0.999390827019096 2.05212946126624E-18
      outer loop
         vertex 0.000419885420807693 0.013658152121843 0.04794
         vertex 0.00041988542080769 0.013658152121843 0
         vertex -0.00148366071020594 0.0135916788261849 0
      endloop
   endfacet
   facet normal -0.0348994967025002 0.999390827019096 2.02918801398369E-18
      outer loop
         vertex 0.000419885420807693 0.013658152121843 0.04794
         vertex -0.00148366071020594 0.0135916788261849 0
         vertex -0.00148366071020594 0.0135916788261849 0.04794
      endloop
   endfacet
   facet normal -0.173648177666932 0.984807753012208 1.02107071721747E-17
      outer loop
         vertex -0.00148366071020594 0.0135916788261849 0.04794
         vertex -0.00148366071020594 0.0135916788261849 0
         vertex -0.00335943036643753 0.013260930026197 0
      endloop
   endfacet
   facet normal -0.173648177666931 0.984807753012208 0
      outer loop
         vertex -0.00148366071020594 0.0135916788261849 0.04794
         vertex -0.00335943036643753 0.013260930026197 0
         vertex -0.00335943036643753 0.013260930026197 0.04794
      endloop
   endfacet
   facet normal -0.309016994374946 0.951056516295154 0
      outer loop
         vertex -0.00335943036643753 0.013260930026197 0.04794
         vertex -0.00335943036643753 0.013260930026197 0
         vertex -0.00517091382518489 0.0126723433710499 0
      endloop
   endfacet
   facet normal -0.309016994374947 0.951056516295154 4.63814403196272E-17
      outer loop
         vertex -0.00335943036643753 0.013260930026197 0.04794
         vertex -0.00517091382518489 0.0126723433710499 0
         vertex -0.00517091382518489 0.0126723433710499 0.04794
      endloop
   endfacet
   facet normal -0.438371146789078 0.898794046299167 3.33210852172491E-17
      outer loop
         vertex -0.00517091382518489 0.0126723433710499 0.04794
         vertex -0.00517091382518489 0.0126723433710499 0
         vertex -0.0068828526214554 0.0118373750304786 0
      endloop
   endfacet
   facet normal -0.438371146789077 0.898794046299167 -1.39144320958882E-17
      outer loop
         vertex -0.00517091382518489 0.0126723433710499 0.04794
         vertex -0.0068828526214554 0.0118373750304786 0
         vertex -0.0068828526214554 0.0118373750304786 0.04794
      endloop
   endfacet
   facet normal -0.559192903470746 0.829037572555042 -4.11748729056229E-17
      outer loop
         vertex -0.0068828526214554 0.0118373750304786 0.04794
         vertex -0.0068828526214554 0.0118373750304786 0
         vertex -0.00846192581388117 0.0107722767134698 0
      endloop
   endfacet
   facet normal -0.559192903470748 0.829037572555041 3.94242242716834E-17
      outer loop
         vertex -0.0068828526214554 0.0118373750304786 0.04794
         vertex -0.00846192581388117 0.0107722767134698 0
         vertex -0.00846192581388117 0.0107722767134698 0.04794
      endloop
   endfacet
   facet normal -0.669130606358858 0.743144825477394 4.84253888754821E-17
      outer loop
         vertex -0.00846192581388117 0.0107722767134698 0.04794
         vertex -0.00846192581388117 0.0107722767134698 0
         vertex -0.00987739853894078 0.00949777934723288 0
      endloop
   endfacet
   facet normal -0.669130606358857 0.743144825477395 -4.63814403196272E-18
      outer loop
         vertex -0.00846192581388117 0.0107722767134698 0.04794
         vertex -0.00987739853894078 0.00949777934723288 0
         vertex -0.00987739853894078 0.00949777934723288 0.04794
      endloop
   endfacet
   facet normal -0.766044443118979 0.642787609686539 8.92017198705949E-18
      outer loop
         vertex -0.00987739853894078 0.00949777934723288 0.04794
         vertex -0.00987739853894078 0.00949777934723288 0
         vertex -0.0111017202301173 0.00803868957328226 0
      endloop
   endfacet
   facet normal -0.766044443118978 0.642787609686539 -6.95721604794408E-18
      outer loop
         vertex -0.00987739853894078 0.00949777934723288 0.04794
         vertex -0.0111017202301173 0.00803868957328226 0
         vertex -0.0111017202301173 0.00803868957328226 0.04794
      endloop
   endfacet
   facet normal -0.848048096156426 0.529919264233206 -2.30231770180346E-17
      outer loop
         vertex -0.0111017202301173 0.00803868957328226 0.04794
         vertex -0.0111017202301173 0.00803868957328226 0
         vertex -0.0121110608583372 0.00642340691437789 0
      endloop
   endfacet
   facet normal -0.848048096156426 0.529919264233205 2.31907201598137E-17
      outer loop
         vertex -0.0111017202301173 0.00803868957328226 0.04794
         vertex -0.0121110608583372 0.00642340691437789 0
         vertex -0.0121110608583372 0.0064234069143779 0.04794
      endloop
   endfacet
   facet normal -0.913545457642601 0.406736643075799 3.66780620968297E-17
      outer loop
         vertex -0.0121110608583372 0.0064234069143779 0.04794
         vertex -0.0121110608583372 0.00642340691437789 0
         vertex -0.0128857747563803 0.00468337101011857 0
      endloop
   endfacet
   facet normal -0.9135454576426 0.406736643075801 -4.40623683036458E-17
      outer loop
         vertex -0.0121110608583372 0.0064234069143779 0.04794
         vertex -0.0128857747563803 0.00468337101011857 0
         vertex -0.0128857747563803 0.00468337101011857 0.04794
      endloop
   endfacet
   facet normal -0.961261695938319 0.275637355817 -5.4606061180957E-17
      outer loop
         vertex -0.0128857747563803 0.00468337101011857 0.04794
         vertex -0.0128857747563803 0.00468337101011857 0
         vertex -0.013410782999445 0.00285244968011919 0
      endloop
   endfacet
   facet normal -0.961261695938319 0.275637355816998 1.85525761278509E-17
      outer loop
         vertex -0.0128857747563803 0.00468337101011857 0.04794
         vertex -0.013410782999445 0.00285244968011919 0
         vertex -0.013410782999445 0.00285244968011919 0.04794
      endloop
   endfacet
   facet normal -0.99026806874157 0.139173100960065 2.7020114451426E-17
      outer loop
         vertex -0.013410782999445 0.00285244968011919 0.04794
         vertex -0.013410782999445 0.00285244968011919 0
         vertex -0.0136758668992681 0.000966279725426048 0
      endloop
   endfacet
   facet normal -0.99026806874157 0.139173100960066 1.04358240719161E-17
      outer loop
         vertex -0.013410782999445 0.00285244968011919 0.04794
         vertex -0.0136758668992681 0.000966279725426048 0
         vertex -0.0136758668992681 0.000966279725426045 0.04794
      endloop
   endfacet
   facet normal -0.999390827019096 0.0348994967025015 2.52569779848163E-18
      outer loop
         vertex -0.0136758668992681 0.000966279725426045 0.04794
         vertex -0.0136758668992681 0.000966279725426048 0
         vertex -0.0137091238063063 1.39265120733787E-05 0.04794
      endloop
   endfacet
   facet normal -0.999390827019096 -0.0348994967025015 -2.46251300621648E-18
      outer loop
         vertex -0.0136758668992681 -0.000938426701279288 0.04794
         vertex -0.0137091238063063 1.39265120733787E-05 0.04794
         vertex -0.0137091238063063 1.3926512073382E-05 0
      endloop
   endfacet
   facet normal -0.999390827019096 0.0348994967025015 2.43443723349743E-18
      outer loop
         vertex -0.0137091238063063 1.3926512073382E-05 0
         vertex -0.0137091238063063 1.39265120733787E-05 0.04794
         vertex -0.0136758668992681 0.000966279725426048 0
      endloop
   endfacet
   facet normal 0 0 1
      outer loop
         vertex 0.000419885420807693 0.013658152121843 0.04794
         vertex -0.00148366071020594 0.0135916788261849 0.04794
         vertex 0.0023141576664148 0.0134590560860834 0.04794
      endloop
   endfacet
   facet normal 0 0 1
      outer loop
         vertex 0.0023141576664148 0.0134590560860834 0.04794
         vertex -0.00148366071020594 0.0135916788261849 0.04794
         vertex -0.00335943036643753 0.013260930026197 0.04794
      endloop
   endfacet
   facet normal 0 0 1
      outer loop
         vertex 0.0023141576664148 0.0134590560860834 0.04794
         vertex -0.00335943036643753 0.013260930026197 0.04794
         vertex 0.00416228617205741 0.012998265896774 0.04794
      endloop
   endfacet
   facet normal 0 0 1
      outer loop
         vertex 0.00416228617205741 0.012998265896774 0.04794
         vertex -0.00335943036643753 0.013260930026197 0.04794
         vertex -0.00517091382518489 0.0126723433710499 0.04794
      endloop
   endfacet
   facet normal 0 0 1
      outer loop
         vertex 0.00416228617205741 0.012998265896774 0.04794
         vertex -0.00517091382518489 0.0126723433710499 0.04794
         vertex 0.00592829921858819 0.0122847503108085 0.04794
      endloop
   endfacet
   facet normal 0 0 1
      outer loop
         vertex 0.00592829921858819 0.0122847503108085 0.04794
         vertex -0.00517091382518489 0.0126723433710499 0.04794
         vertex -0.0068828526214554 0.0118373750304786 0.04794
      endloop
   endfacet
   facet normal 0 0 1
      outer loop
         vertex 0.00592829921858819 0.0122847503108085 0.04794
         vertex -0.0068828526214554 0.0118373750304786 0.04794
         vertex 0.00757782337086649 0.0113323970974559 0.04794
      endloop
   endfacet
   facet normal 0 0 1
      outer loop
         vertex 0.00757782337086649 0.0113323970974559 0.04794
         vertex -0.0068828526214554 0.0118373750304786 0.04794
         vertex -0.00846192581388117 0.0107722767134698 0.04794
      endloop
   endfacet
   facet normal 0 0 1
      outer loop
         vertex 0.00757782337086649 0.0113323970974559 0.04794
         vertex -0.00846192581388117 0.0107722767134698 0.04794
         vertex 0.00907875251757412 0.0101597427287282 0.04794
      endloop
   endfacet
   facet normal 0 0 1
      outer loop
         vertex 0.00907875251757412 0.0101597427287282 0.04794
         vertex -0.00846192581388117 0.0107722767134698 0.04794
         vertex -0.00987739853894078 0.00949777934723288 0.04794
      endloop
   endfacet
   facet normal 0 0 1
      outer loop
         vertex 0.00907875251757412 0.0101597427287282 0.04794
         vertex -0.00987739853894078 0.00949777934723288 0.04794
         vertex 0.010401872780152 0.00878961158803823 0.04794
      endloop
   endfacet
   facet normal 0 0 1
      outer loop
         vertex 0.010401872780152 0.00878961158803823 0.04794
         vertex -0.00987739853894078 0.00949777934723288 0.04794
         vertex -0.0111017202301173 0.00803868957328226 0.04794
      endloop
   endfacet
   facet normal 0 0 1
      outer loop
         vertex 0.010401872780152 0.00878961158803823 0.04794
         vertex -0.0111017202301173 0.00803868957328226 0.04794
         vertex 0.0115214311277161 0.00724867171953844 0.04794
      endloop
   endfacet
   facet normal 0 0 1
      outer loop
         vertex 0.0115214311277161 0.00724867171953844 0.04794
         vertex -0.0111017202301173 0.00803868957328226 0.04794
         vertex -0.0121110608583372 0.0064234069143779 0.04794
      endloop
   endfacet
   facet normal 0 0 1
      outer loop
         vertex 0.0115214311277161 0.00724867171953844 0.04794
         vertex -0.0121110608583372 0.0064234069143779 0.04794
         vertex 0.0124156366305098 0.00556691576497604 0.04794
      endloop
   endfacet
   facet normal 0 0 1
      outer loop
         vertex 0.0124156366305098 0.00556691576497604 0.04794
         vertex -0.0121110608583372 0.0064234069143779 0.04794
         vertex -0.0128857747563803 0.00468337101011857 0.04794
      endloop
   endfacet
   facet normal 0 0 1
      outer loop
         vertex 0.0124156366305098 0.00556691576497604 0.04794
         vertex -0.0128857747563803 0.00468337101011857 0.04794
         vertex 0.0130670845955649 0.00377707719103754 0.04794
      endloop
   endfacet
   facet normal 0 0 1
      outer loop
         vertex 0.0130670845955649 0.00377707719103754 0.04794
         vertex -0.0128857747563803 0.00468337101011857 0.04794
         vertex -0.013410782999445 0.00285244968011919 0.04794
      endloop
   endfacet
   facet normal 0 0 1
      outer loop
         vertex 0.0130670845955649 0.00377707719103754 0.04794
         vertex -0.013410782999445 0.00285244968011919 0.04794
         vertex 0.0134630953292526 0.00191399316965347 0.04794
      endloop
   endfacet
   facet normal 0 0 1
      outer loop
         vertex 0.0134630953292526 0.00191399316965347 0.04794
         vertex -0.013410782999445 0.00285244968011919 0.04794
         vertex -0.0136758668992681 0.000966279725426045 0.04794
      endloop
   endfacet
   facet normal 0 0 1
      outer loop
         vertex 0.0134630953292526 0.00191399316965347 0.04794
         vertex -0.0136758668992681 0.000966279725426045 0.04794
         vertex 0.0135959609330974 1.39265120733803E-05 0.04794
      endloop
   endfacet
   facet normal 0 0 1
      outer loop
         vertex 0.0135959609330974 1.39265120733803E-05 0.04794
         vertex -0.0136758668992681 0.000966279725426045 0.04794
         vertex -0.0137091238063063 1.39265120733787E-05 0.04794
      endloop
   endfacet
   facet normal 0 0 1
      outer loop
         vertex 0.0135959609330974 1.39265120733803E-05 0.04794
         vertex -0.0137091238063063 1.39265120733787E-05 0.04794
         vertex 0.0134630953292526 -0.00188614014550671 0.04794
      endloop
   endfacet
   facet normal 0 0 1
      outer loop
         vertex 0.0134630953292526 -0.00188614014550671 0.04794
         vertex -0.0137091238063063 1.39265120733787E-05 0.04794
         vertex -0.0136758668992681 -0.000938426701279288 0.04794
      endloop
   endfacet
   facet normal 0 0 1
      outer loop
         vertex 0.0134630953292526 -0.00188614014550671 0.04794
         vertex -0.0136758668992681 -0.000938426701279288 0.04794
         vertex -0.013410782999445 -0.00282459665597243 0.04794
      endloop
   endfacet
   facet normal 0 0 1
      outer loop
         vertex 0.0134630953292526 -0.00188614014550671 0.04794
         vertex -0.013410782999445 -0.00282459665597243 0.04794
         vertex 0.0130670845955649 -0.00374922416689078 0.04794
      endloop
   endfacet
   facet normal 0 0 1
      outer loop
         vertex 0.0130670845955649 -0.00374922416689078 0.04794
         vertex -0.013410782999445 -0.00282459665597243 0.04794
         vertex -0.0128857747563803 -0.00465551798597181 0.04794
      endloop
   endfacet
   facet normal 0 0 1
      outer loop
         vertex 0.0130670845955649 -0.00374922416689078 0.04794
         vertex -0.0128857747563803 -0.00465551798597181 0.04794
         vertex 0.0124156366305098 -0.00553906274082928 0.04794
      endloop
   endfacet
   facet normal 0 0 1
      outer loop
         vertex 0.0124156366305098 -0.00553906274082928 0.04794
         vertex -0.0128857747563803 -0.00465551798597181 0.04794
         vertex -0.0121110608583372 -0.00639555389023113 0.04794
      endloop
   endfacet
   facet normal 0 0 1
      outer loop
         vertex 0.0124156366305098 -0.00553906274082928 0.04794
         vertex -0.0121110608583372 -0.00639555389023113 0.04794
         vertex 0.0115214311277161 -0.00722081869539168 0.04794
      endloop
   endfacet
   facet normal 0 0 1
      outer loop
         vertex 0.0115214311277161 -0.00722081869539168 0.04794
         vertex -0.0121110608583372 -0.00639555389023113 0.04794
         vertex -0.0111017202301173 -0.0080108365491355 0.04794
      endloop
   endfacet
   facet normal 0 0 1
      outer loop
         vertex 0.0115214311277161 -0.00722081869539168 0.04794
         vertex -0.0111017202301173 -0.0080108365491355 0.04794
         vertex 0.010401872780152 -0.00876175856389147 0.04794
      endloop
   endfacet
   facet normal 0 0 1
      outer loop
         vertex 0.010401872780152 -0.00876175856389147 0.04794
         vertex -0.0111017202301173 -0.0080108365491355 0.04794
         vertex -0.00987739853894078 -0.00946992632308612 0.04794
      endloop
   endfacet
   facet normal 0 0 1
      outer loop
         vertex 0.010401872780152 -0.00876175856389147 0.04794
         vertex -0.00987739853894078 -0.00946992632308612 0.04794
         vertex 0.00907875251757412 -0.0101318897045814 0.04794
      endloop
   endfacet
   facet normal 0 0 1
      outer loop
         vertex 0.00907875251757412 -0.0101318897045814 0.04794
         vertex -0.00987739853894078 -0.00946992632308612 0.04794
         vertex -0.00846192581388117 -0.0107444236893231 0.04794
      endloop
   endfacet
   facet normal 0 0 1
      outer loop
         vertex 0.00907875251757412 -0.0101318897045814 0.04794
         vertex -0.00846192581388117 -0.0107444236893231 0.04794
         vertex 0.00757782337086649 -0.0113045440733091 0.04794
      endloop
   endfacet
   facet normal 0 0 1
      outer loop
         vertex 0.00757782337086649 -0.0113045440733091 0.04794
         vertex -0.00846192581388117 -0.0107444236893231 0.04794
         vertex -0.0068828526214554 -0.0118095220063318 0.04794
      endloop
   endfacet
   facet normal 0 0 1
      outer loop
         vertex 0.00757782337086649 -0.0113045440733091 0.04794
         vertex -0.0068828526214554 -0.0118095220063318 0.04794
         vertex 0.00592829921858819 -0.0122568972866618 0.04794
      endloop
   endfacet
   facet normal 0 0 1
      outer loop
         vertex 0.00592829921858819 -0.0122568972866618 0.04794
         vertex -0.0068828526214554 -0.0118095220063318 0.04794
         vertex -0.00517091382518489 -0.0126444903469032 0.04794
      endloop
   endfacet
   facet normal 0 0 1
      outer loop
         vertex 0.00592829921858819 -0.0122568972866618 0.04794
         vertex -0.00517091382518489 -0.0126444903469032 0.04794
         vertex 0.00416228617205741 -0.0129704128726272 0.04794
      endloop
   endfacet
   facet normal 0 0 1
      outer loop
         vertex 0.00416228617205741 -0.0129704128726272 0.04794
         vertex -0.00517091382518489 -0.0126444903469032 0.04794
         vertex -0.00335943036643753 -0.0132330770020503 0.04794
      endloop
   endfacet
   facet normal 0 0 1
      outer loop
         vertex 0.00416228617205741 -0.0129704128726272 0.04794
         vertex -0.00335943036643753 -0.0132330770020503 0.04794
         vertex 0.00231415766641481 -0.0134312030619367 0.04794
      endloop
   endfacet
   facet normal 0 0 1
      outer loop
         vertex 0.00231415766641481 -0.0134312030619367 0.04794
         vertex -0.00335943036643753 -0.0132330770020503 0.04794
         vertex -0.00148366071020594 -0.0135638258020382 0.04794
      endloop
   endfacet
   facet normal 0 0 1
      outer loop
         vertex 0.00231415766641481 -0.0134312030619367 0.04794
         vertex -0.00148366071020594 -0.0135638258020382 0.04794
         vertex 0.00041988542080769 -0.0136302990976962 0.04794
      endloop
   endfacet
   facet normal 0 0 -1
      outer loop
         vertex 0.000419885420807693 -0.0136302990976962 0
         vertex -0.00148366071020594 -0.0135638258020382 0
         vertex 0.0023141576664148 -0.0134312030619367 0
      endloop
   endfacet
   facet normal 0 0 -1
      outer loop
         vertex 0.0023141576664148 -0.0134312030619367 0
         vertex -0.00148366071020594 -0.0135638258020382 0
         vertex -0.00335943036643753 -0.0132330770020503 0
      endloop
   endfacet
   facet normal 0 0 -1
      outer loop
         vertex 0.0023141576664148 -0.0134312030619367 0
         vertex -0.00335943036643753 -0.0132330770020503 0
         vertex 0.00416228617205741 -0.0129704128726272 0
      endloop
   endfacet
   facet normal 0 0 -1
      outer loop
         vertex 0.00416228617205741 -0.0129704128726272 0
         vertex -0.00335943036643753 -0.0132330770020503 0
         vertex -0.00517091382518489 -0.0126444903469032 0
      endloop
   endfacet
   facet normal 0 0 -1
      outer loop
         vertex 0.00416228617205741 -0.0129704128726272 0
         vertex -0.00517091382518489 -0.0126444903469032 0
         vertex 0.00592829921858819 -0.0122568972866618 0
      endloop
   endfacet
   facet normal 0 0 -1
      outer loop
         vertex 0.00592829921858819 -0.0122568972866618 0
         vertex -0.00517091382518489 -0.0126444903469032 0
         vertex -0.0068828526214554 -0.0118095220063318 0
      endloop
   endfacet
   facet normal 0 0 -1
      outer loop
         vertex 0.00592829921858819 -0.0122568972866618 0
         vertex -0.0068828526214554 -0.0118095220063318 0
         vertex 0.00757782337086649 -0.0113045440733091 0
      endloop
   endfacet
   facet normal 0 0 -1
      outer loop
         vertex 0.00757782337086649 -0.0113045440733091 0
         vertex -0.0068828526214554 -0.0118095220063318 0
         vertex -0.00846192581388117 -0.0107444236893231 0
      endloop
   endfacet
   facet normal 0 0 -1
      outer loop
         vertex 0.00757782337086649 -0.0113045440733091 0
         vertex -0.00846192581388117 -0.0107444236893231 0
         vertex 0.00907875251757412 -0.0101318897045814 0
      endloop
   endfacet
   facet normal 0 0 -1
      outer loop
         vertex 0.00907875251757412 -0.0101318897045814 0
         vertex -0.00846192581388117 -0.0107444236893231 0
         vertex -0.00987739853894078 -0.00946992632308612 0
      endloop
   endfacet
   facet normal 0 0 -1
      outer loop
         vertex 0.00907875251757412 -0.0101318897045814 0
         vertex -0.00987739853894078 -0.00946992632308612 0
         vertex 0.010401872780152 -0.00876175856389147 0
      endloop
   endfacet
   facet normal 0 0 -1
      outer loop
         vertex 0.010401872780152 -0.00876175856389147 0
         vertex -0.00987739853894078 -0.00946992632308612 0
         vertex -0.0111017202301173 -0.00801083654913549 0
      endloop
   endfacet
   facet normal 0 0 -1
      outer loop
         vertex 0.010401872780152 -0.00876175856389147 0
         vertex -0.0111017202301173 -0.00801083654913549 0
         vertex 0.0115214311277161 -0.00722081869539168 0
      endloop
   endfacet
   facet normal 0 0 -1
      outer loop
         vertex 0.0115214311277161 -0.00722081869539168 0
         vertex -0.0111017202301173 -0.00801083654913549 0
         vertex -0.0121110608583372 -0.00639555389023114 0
      endloop
   endfacet
   facet normal 0 0 -1
      outer loop
         vertex 0.0115214311277161 -0.00722081869539168 0
         vertex -0.0121110608583372 -0.00639555389023114 0
         vertex 0.0124156366305098 -0.00553906274082928 0
      endloop
   endfacet
   facet normal 0 0 -1
      outer loop
         vertex 0.0124156366305098 -0.00553906274082928 0
         vertex -0.0121110608583372 -0.00639555389023114 0
         vertex -0.0128857747563803 -0.00465551798597181 0
      endloop
   endfacet
   facet normal 0 0 -1
      outer loop
         vertex 0.0124156366305098 -0.00553906274082928 0
         vertex -0.0128857747563803 -0.00465551798597181 0
         vertex 0.0130670845955649 -0.00374922416689078 0
      endloop
   endfacet
   facet normal 0 0 -1
      outer loop
         vertex 0.0130670845955649 -0.00374922416689078 0
         vertex -0.0128857747563803 -0.00465551798597181 0
         vertex -0.013410782999445 -0.00282459665597243 0
      endloop
   endfacet
   facet normal 0 0 -1
      outer loop
         vertex 0.0130670845955649 -0.00374922416689078 0
         vertex -0.013410782999445 -0.00282459665597243 0
         vertex 0.0134630953292526 -0.00188614014550671 0
      endloop
   endfacet
   facet normal 0 0 -1
      outer loop
         vertex 0.0134630953292526 -0.00188614014550671 0
         vertex -0.013410782999445 -0.00282459665597243 0
         vertex -0.0136758668992681 -0.000938426701279284 0
      endloop
   endfacet
   facet normal 0 0 -1
      outer loop
         vertex 0.0134630953292526 -0.00188614014550671 0
         vertex -0.0136758668992681 -0.000938426701279284 0
         vertex 0.0135959609330974 1.39265120733803E-05 0
      endloop
   endfacet
   facet normal 0 0 -1
      outer loop
         vertex 0.0135959609330974 1.39265120733803E-05 0
         vertex -0.0136758668992681 -0.000938426701279284 0
         vertex -0.0137091238063063 1.3926512073382E-05 0
      endloop
   endfacet
   facet normal 0 0 -1
      outer loop
         vertex 0.0135959609330974 1.39265120733803E-05 0
         vertex -0.0137091238063063 1.3926512073382E-05 0
         vertex -0.0136758668992681 0.000966279725426048 0
      endloop
   endfacet
   facet normal 0 0 -1
      outer loop
         vertex 0.0135959609330974 1.39265120733803E-05 0
         vertex -0.0136758668992681 0.000966279725426048 0
         vertex 0.0134630953292526 0.00191399316965347 0
      endloop
   endfacet
   facet normal 0 0 -1
      outer loop
         vertex 0.0134630953292526 0.00191399316965347 0
         vertex -0.0136758668992681 0.000966279725426048 0
         vertex -0.013410782999445 0.00285244968011919 0
      endloop
   endfacet
   facet normal 0 0 -1
      outer loop
         vertex 0.0134630953292526 0.00191399316965347 0
         vertex -0.013410782999445 0.00285244968011919 0
         vertex 0.0130670845955649 0.00377707719103754 0
      endloop
   endfacet
   facet normal 0 0 -1
      outer loop
         vertex 0.0130670845955649 0.00377707719103754 0
         vertex -0.013410782999445 0.00285244968011919 0
         vertex -0.0128857747563803 0.00468337101011857 0
      endloop
   endfacet
   facet normal 0 0 -1
      outer loop
         vertex 0.0130670845955649 0.00377707719103754 0
         vertex -0.0128857747563803 0.00468337101011857 0
         vertex 0.0124156366305098 0.00556691576497604 0
      endloop
   endfacet
   facet normal 0 0 -1
      outer loop
         vertex 0.0124156366305098 0.00556691576497604 0
         vertex -0.0128857747563803 0.00468337101011857 0
         vertex -0.0121110608583372 0.00642340691437789 0
      endloop
   endfacet
   facet normal 0 0 -1
      outer loop
         vertex 0.0124156366305098 0.00556691576497604 0
         vertex -0.0121110608583372 0.00642340691437789 0
         vertex 0.0115214311277161 0.00724867171953844 0
      endloop
   endfacet
   facet normal 0 0 -1
      outer loop
         vertex 0.0115214311277161 0.00724867171953844 0
         vertex -0.0121110608583372 0.00642340691437789 0
         vertex -0.0111017202301173 0.00803868957328226 0
      endloop
   endfacet
   facet normal 0 0 -1
      outer loop
         vertex 0.0115214311277161 0.00724867171953844 0
         vertex -0.0111017202301173 0.00803868957328226 0
         vertex 0.010401872780152 0.00878961158803823 0
      endloop
   endfacet
   facet normal 0 0 -1
      outer loop
         vertex 0.010401872780152 0.00878961158803823 0
         vertex -0.0111017202301173 0.00803868957328226 0
         vertex -0.00987739853894078 0.00949777934723288 0
      endloop
   endfacet
   facet normal 0 0 -1
      outer loop
         vertex 0.010401872780152 0.00878961158803823 0
         vertex -0.00987739853894078 0.00949777934723288 0
         vertex 0.00907875251757412 0.0101597427287282 0
      endloop
   endfacet
   facet normal 0 0 -1
      outer loop
         vertex 0.00907875251757412 0.0101597427287282 0
         vertex -0.00987739853894078 0.00949777934723288 0
         vertex -0.00846192581388117 0.0107722767134698 0
      endloop
   endfacet
   facet normal 0 0 -1
      outer loop
         vertex 0.00907875251757412 0.0101597427287282 0
         vertex -0.00846192581388117 0.0107722767134698 0
         vertex 0.00757782337086649 0.0113323970974559 0
      endloop
   endfacet
   facet normal 0 0 -1
      outer loop
         vertex 0.00757782337086649 0.0113323970974559 0
         vertex -0.00846192581388117 0.0107722767134698 0
         vertex -0.0068828526214554 0.0118373750304786 0
      endloop
   endfacet
   facet normal 0 0 -1
      outer loop
         vertex 0.00757782337086649 0.0113323970974559 0
         vertex -0.0068828526214554 0.0118373750304786 0
         vertex 0.00592829921858819 0.0122847503108085 0
      endloop
   endfacet
   facet normal 0 0 -1
      outer loop
         vertex 0.00592829921858819 0.0122847503108085 0
         vertex -0.0068828526214554 0.0118373750304786 0
         vertex -0.00517091382518489 0.0126723433710499 0
      endloop
   endfacet
   facet normal 0 0 -1
      outer loop
         vertex 0.00592829921858819 0.0122847503108085 0
         vertex -0.00517091382518489 0.0126723433710499 0
         vertex 0.00416228617205741 0.012998265896774 0
      endloop
   endfacet
   facet normal 0 0 -1
      outer loop
         vertex 0.00416228617205741 0.012998265896774 0
         vertex -0.00517091382518489 0.0126723433710499 0
         vertex -0.00335943036643753 0.013260930026197 0
      endloop
   endfacet
   facet normal 0 0 -1
      outer loop
         vertex 0.00416228617205741 0.012998265896774 0
         vertex -0.00335943036643753 0.013260930026197 0
         vertex 0.00231415766641481 0.0134590560860834 0
      endloop
   endfacet
   facet normal 0 0 -1
      outer loop
         vertex 0.00231415766641481 0.0134590560860834 0
         vertex -0.00335943036643753 0.013260930026197 0
         vertex -0.00148366071020594 0.0135916788261849 0
      endloop
   endfacet
   facet normal 0 0 -1
      outer loop
         vertex 0.00231415766641481 0.0134590560860834 0
         vertex -0.00148366071020594 0.0135916788261849 0
         vertex 0.00041988542080769 0.013658152121843 0
      endloop
   endfacet
endsolid
