solid "box<stl unit=M>"
   facet normal 0 0 -1
      outer loop
         vertex -0.0185615992389522 0.0185230233057944 0
         vertex 0.0197844292112647 0.0185230233057944 0
         vertex -0.0185615992389522 -0.0198230051444225 0
      endloop
   endfacet
   facet normal 0 0 -1
      outer loop
         vertex -0.0185615992389522 -0.0198230051444225 0
         vertex 0.0197844292112647 0.0185230233057944 0
         vertex 0.0197844292112647 -0.0198230051444225 0
      endloop
   endfacet
   facet normal 0 -0.894427190999916 0.447213595499958
      outer loop
         vertex 0.0197844292112647 -0.0198230051444225 0
         vertex 0.000611414986156258 -0.000649990919314053 0.0383460284502169
         vertex -0.0185615992389522 -0.0198230051444225 0
      endloop
   endfacet
   facet normal 0.894427190999916 0 0.447213595499958
      outer loop
         vertex 0.0197844292112647 0.0185230233057944 0
         vertex 0.000611414986156258 -0.000649990919314053 0.0383460284502169
         vertex 0.0197844292112647 -0.0198230051444225 0
      endloop
   endfacet
   facet normal 0 0.894427190999916 0.447213595499958
      outer loop
         vertex -0.0185615992389522 0.0185230233057944 0
         vertex 0.000611414986156258 -0.000649990919314053 0.0383460284502169
         vertex 0.0197844292112647 0.0185230233057944 0
      endloop
   endfacet
   facet normal -0.894427190999916 0 0.447213595499958
      outer loop
         vertex -0.0185615992389522 -0.0198230051444225 0
         vertex 0.000611414986156258 -0.000649990919314053 0.0383460284502169
         vertex -0.0185615992389522 0.0185230233057944 0
      endloop
   endfacet
endsolid
